<svg xmlns="http://www.w3.org/2000/svg" viewBox="0 0 1513.56 302.4"><defs><style>.cls-1{fill:none;stroke:#fff;stroke-miterlimit:10;stroke-width:5px;}.cls-2{fill:#206994;}.cls-3{fill:#367fac;}.cls-4{fill:#85b3cb;}.cls-5{fill:#488db4;}.cls-6{fill:#1b5f86;}.cls-7{fill:#2272a5;}.cls-8{fill:#ca4b06;}.cls-9{fill:#f8782f;}.cls-10{fill:#f6681c;}.cls-11{fill:#f8a77a;}.cls-12{fill:#fa965a;}.cls-13{fill:#f98748;}.cls-14{fill:#e15309;}.cls-15,.cls-16{fill:#fff;}.cls-16{font-size:93.45px;font-family:OpenSans, Open Sans;letter-spacing:-0.05em;}</style></defs><g id="Layer_2" data-name="Layer 2"><g id="Layer_1-2" data-name="Layer 1"><line class="cls-1" x1="488.56" y1="9.4" x2="488.56" y2="302.4"/><polygon class="cls-2" points="110.22 9.4 0.04 106.93 110.22 106.93 110.22 9.4"/><polygon class="cls-3" points="110.19 107.03 0 204.56 110.19 204.56 110.19 107.03"/><polygon class="cls-4" points="110.19 204.56 0 302.08 110.19 302.08 110.19 204.56"/><polygon class="cls-4" points="110.19 302.08 220.37 204.56 110.19 204.56 110.19 302.08"/><polygon class="cls-5" points="110.19 204.56 220.37 107.03 110.19 107.03 110.19 204.56"/><polygon class="cls-6" points="110.19 107.03 220.37 9.5 110.19 9.5 110.19 107.03"/><polygon class="cls-7" points="0 204.56 110.19 107.03 0 107.03 0 204.56"/><polygon class="cls-8" points="220.37 107.03 330.56 9.5 220.37 9.5 220.37 107.03"/><polygon class="cls-9" points="220.37 204.56 330.56 107.03 220.37 107.03 220.37 204.56"/><polygon class="cls-10" points="220.37 107.03 110.19 204.56 220.37 204.56 220.37 107.03"/><polygon class="cls-11" points="220.37 204.56 110.19 302.08 220.37 302.08 220.37 204.56"/><polygon class="cls-12" points="220.37 302.08 330.56 204.56 220.37 204.56 220.37 302.08"/><polygon class="cls-13" points="330.56 107.03 220.37 204.56 330.56 204.56 330.56 107.03"/><polygon class="cls-14" points="220.37 9.5 110.19 107.03 220.37 107.03 220.37 9.5"/><path class="cls-15" d="M711,224.19q0,17.13-12.33,27T664.38,261q-20.24,0-35.81-7.61V228.51a147.42,147.42,0,0,0,21.67,8.05,64,64,0,0,0,16.22,2.33q8.82,0,13.54-3.37t4.71-10a11.1,11.1,0,0,0-2.07-6.62,23.43,23.43,0,0,0-6.1-5.58q-4-2.68-16.4-8.57-11.58-5.44-17.38-10.46a39.34,39.34,0,0,1-9.26-11.68A33.28,33.28,0,0,1,630,167q0-16.78,11.38-26.39t31.44-9.6a74.14,74.14,0,0,1,18.82,2.34,128.72,128.72,0,0,1,18.72,6.57l-8.65,20.85A126.71,126.71,0,0,0,685,155a54.26,54.26,0,0,0-13-1.64q-7.62,0-11.68,3.55a11.69,11.69,0,0,0-4.07,9.25,11.43,11.43,0,0,0,1.65,6.19,18,18,0,0,0,5.23,5.1q3.58,2.46,17,8.87,17.73,8.47,24.31,17T711,224.19Z"/><path class="cls-15" d="M776.47,261q-17,0-26.73-12.37h-1.38c.92,8.07,1.38,12.75,1.38,14v39.19H723.35V162.6h21.46l3.72,12.54h1.21q9.25-14.35,27.42-14.36,17.13,0,26.82,13.23t9.69,36.77q0,15.48-4.54,26.9t-12.94,17.39A33.13,33.13,0,0,1,776.47,261Zm-7.79-79.15q-9.76,0-14.27,6t-4.67,19.85v2.86q0,15.57,4.63,22.32T769,239.67q17.73,0,17.73-29.24,0-14.27-4.36-21.41T768.68,181.89Z"/><path class="cls-15" d="M888.38,259.31l-5.1-13.15h-.69q-6.66,8.4-13.71,11.64T850.49,261q-13.92,0-21.93-8t-8-22.66q0-15.4,10.77-22.71t32.49-8.09l16.78-.52v-4.24q0-14.7-15.05-14.7-11.59,0-27.25,7l-8.74-17.82a78.66,78.66,0,0,1,37-8.73q19.47,0,29.85,8.47t10.38,25.78v64.45ZM880.6,214.5l-10.21.35q-11.5.35-17.13,4.15t-5.62,11.59q0,11.16,12.8,11.16,9.16,0,14.67-5.28t5.49-14Z"/><path class="cls-15" d="M979.45,160.78a42.48,42.48,0,0,1,8.91.78l-2,24.74a30,30,0,0,0-7.78-.87q-12.65,0-19.69,6.49t-7,18.17v49.22H925.47V162.6h20l3.9,16.26h1.29a36.38,36.38,0,0,1,12.16-13.11A30,30,0,0,1,979.45,160.78Z"/><path class="cls-15" d="M1022.76,206.71l11.51-14.7,27.08-29.41h29.75l-38.4,42,40.74,54.76H1063l-27.86-39.19-11.33,9.09v30.1H997.42V124.71h26.38v60l-1.38,22Z"/><path class="cls-15" d="M1188.23,172.28q0,20.43-12.76,31.23t-36.29,10.82h-11.51v45h-26.82V132.84h40.4q23,0,35,9.9T1188.23,172.28Zm-60.56,20.07h8.82q12.38,0,18.52-4.88t6.14-14.23q0-9.44-5.15-13.93t-16.13-4.5h-12.2Z"/><path class="cls-15" d="M1289.41,210.78q0,23.61-12.45,36.94T1242.27,261q-13.93,0-24.57-6.1a40.5,40.5,0,0,1-16.35-17.52q-5.71-11.41-5.71-26.64,0-23.7,12.37-36.85t34.78-13.15a48.84,48.84,0,0,1,24.56,6.05,40.39,40.39,0,0,1,16.35,17.39Q1289.42,195.56,1289.41,210.78Zm-66.87,0q0,14.35,4.72,21.71t15.35,7.36q10.56,0,15.18-7.31t4.63-21.76q0-14.35-4.67-21.54t-15.31-7.18q-10.56,0-15.23,7.14T1222.54,210.78Z"/><path class="cls-15" d="M1301.58,137.59q0-12.89,14.36-12.88t14.37,12.88q0,6.15-3.6,9.56t-10.77,3.42Q1301.58,150.57,1301.58,137.59Zm27.51,121.72h-26.38V162.6h26.38Z"/><path class="cls-15" d="M1437.55,259.31h-26.39V202.82q0-10.47-3.72-15.7t-11.85-5.23q-11.07,0-16,7.39t-4.93,24.53v45.5h-26.39V162.6h20.16L1372,175h1.48a27.8,27.8,0,0,1,12.15-10.6,41.43,41.43,0,0,1,17.6-3.59q16.88,0,25.61,9.13t8.74,26.34Z"/><path class="cls-15" d="M1497,240a57.19,57.19,0,0,0,16.61-3v19.64q-9.86,4.41-24.22,4.41-15.84,0-23.06-8t-7.22-24V182.41h-12.63V171.25l14.53-8.83,7.62-20.41h16.87V162.6h27.07v19.81h-27.07V229q0,5.63,3.15,8.31A12.46,12.46,0,0,0,1497,240Z"/><text class="cls-16" transform="translate(628.32 80.08)">Powered by</text></g></g></svg>