<svg xmlns="http://www.w3.org/2000/svg" width="195.95" height="195.748" viewBox="0 0 195.95 195.748">
  <g id="Group_1157" data-name="Group 1157" transform="translate(-263.597 -1237.624)">
    <path id="Subtraction_15" data-name="Subtraction 15" d="M44.744,89.871A3.974,3.974,0,0,1,41.916,88.7L34.13,80.914a18.61,18.61,0,0,0,8.7-15.809c0-10.133-7.969-18.377-17.764-18.377A17.7,17.7,0,0,0,9.488,56.271L.793,47.577a4.005,4.005,0,0,1,0-5.656L15.143,27.57a7.815,7.815,0,0,0,.448-2.645,7.963,7.963,0,0,0-1.176-4.17,9.8,9.8,0,1,1,6.7-6.717A7.951,7.951,0,0,0,25.3,15.225h.008a7.9,7.9,0,0,0,2.63-.448L41.916.8a4,4,0,0,1,5.657,0L61.624,14.847a7.981,7.981,0,0,0,6.605-.811,9.8,9.8,0,1,1,6.7,6.715,7.962,7.962,0,0,0-1.175,4.172,7.82,7.82,0,0,0,.374,2.425L88.7,41.92a4,4,0,0,1,0,5.656L74.449,61.824a7.821,7.821,0,0,0-.7,3.269,7.956,7.956,0,0,0,1.176,4.171,9.8,9.8,0,1,1-6.7,6.716,7.975,7.975,0,0,0-7.447-.489L47.573,88.7A3.974,3.974,0,0,1,44.744,89.871Z" transform="translate(316.733 1237.999)" fill="#39beec"/>
    <path id="Subtraction_22" data-name="Subtraction 22" d="M44.748,89.873A3.974,3.974,0,0,1,41.919,88.7L27.943,74.725a7.98,7.98,0,0,0-6.828.736,9.793,9.793,0,1,1-6.7-6.716,7.956,7.956,0,0,0,1.175-4.171,7.829,7.829,0,0,0-.448-2.648L.8,47.579a4,4,0,0,1,0-5.656l8.694-8.694a17.694,17.694,0,0,0,15.581,9.543c9.8,0,17.764-8.244,17.764-18.377a18.612,18.612,0,0,0-8.7-15.809L41.919.8a4,4,0,0,1,5.657,0L60.785,14.009a7.975,7.975,0,0,0,7.447-.489,9.792,9.792,0,1,1,6.7,6.716,7.964,7.964,0,0,0-1.175,4.171,7.8,7.8,0,0,0,.7,3.27L88.7,41.922a4,4,0,0,1,0,5.656L74.127,62.15a7.858,7.858,0,0,0-.373,2.425,7.956,7.956,0,0,0,1.176,4.171,9.8,9.8,0,1,1-6.7,6.716,7.985,7.985,0,0,0-6.607-.811L47.576,88.7A3.973,3.973,0,0,1,44.748,89.873Z" transform="translate(369.677 1290.819)" fill="#fff"/>
    <path id="Subtraction_29" data-name="Subtraction 29" d="M44.75,89.874A3.977,3.977,0,0,1,41.921,88.7l-7.786-7.786a18.611,18.611,0,0,0,8.7-15.81c0-10.133-7.969-18.376-17.764-18.376A17.694,17.694,0,0,0,9.493,56.274L.8,47.579a4,4,0,0,1,0-5.657l14.35-14.35a7.847,7.847,0,0,0,.448-2.646,7.956,7.956,0,0,0-1.176-4.171,9.8,9.8,0,1,1,6.7-6.716,7.984,7.984,0,0,0,6.827.737L41.921.8a4,4,0,0,1,5.657,0L61.631,14.851a7.983,7.983,0,0,0,6.6-.812,9.8,9.8,0,1,1,6.7,6.715,7.963,7.963,0,0,0-1.176,4.172,7.879,7.879,0,0,0,.374,2.424L88.7,41.922a4.007,4.007,0,0,1,0,5.657L74.454,61.828a7.811,7.811,0,0,0-.7,3.267,7.963,7.963,0,0,0,1.175,4.171,9.8,9.8,0,1,1-6.7,6.716,7.976,7.976,0,0,0-7.445-.49L47.578,88.7A3.977,3.977,0,0,1,44.75,89.874Z" transform="translate(406.154 1433) rotate(180)" fill="#1b60a3"/>
    <path id="Subtraction_36" data-name="Subtraction 36" d="M44.748,89.873A3.977,3.977,0,0,1,41.919,88.7L27.942,74.724a7.987,7.987,0,0,0-6.827.736,9.794,9.794,0,1,1-6.7-6.715,7.956,7.956,0,0,0,1.176-4.171,7.85,7.85,0,0,0-.449-2.647L.8,47.579a4,4,0,0,1,0-5.656l8.694-8.694a17.694,17.694,0,0,0,15.581,9.543c9.8,0,17.765-8.244,17.765-18.377a18.612,18.612,0,0,0-8.7-15.809L41.919.8a4,4,0,0,1,5.657,0l13.21,13.211a7.977,7.977,0,0,0,7.446-.49,9.793,9.793,0,1,1,6.7,6.716,7.965,7.965,0,0,0-1.176,4.171,7.819,7.819,0,0,0,.7,3.268L88.7,41.922a4,4,0,0,1,0,5.656L74.127,62.151a7.855,7.855,0,0,0-.373,2.425,7.955,7.955,0,0,0,1.175,4.171,9.8,9.8,0,1,1-6.7,6.716,7.987,7.987,0,0,0-6.605-.812L47.577,88.7A3.977,3.977,0,0,1,44.748,89.873Z" transform="translate(353.469 1380.32) rotate(180)" fill="#fff"/>
  </g>
</svg>
