<svg xmlns="http://www.w3.org/2000/svg" width="104.152" height="200" viewBox="0 0 104.152 200">
  <g id="Group_1155" data-name="Group 1155" transform="translate(-81.924 -2475.497)">
    <g id="Group_1147" data-name="Group 1147" transform="translate(116.643 2475.497)">
      <path id="Union_1" data-name="Union 1" d="M0,120.931,6.113,78.183,34.719,0l28.6,78.183,6.113,42.747L34.719,160.249Z" transform="translate(0 0)" fill="#39beec"/>
      <path id="Union_2" data-name="Union 2" d="M3.473,60.473,0,46.865,20.83,0,41.664,46.865,38.186,60.473,20.83,80.119Z" transform="translate(13.885 80.126)" fill="#fff"/>
    </g>
    <g id="Group_1148" data-name="Group 1148" transform="translate(81.924 2595.37)">
      <path id="Union_1-2" data-name="Union 1" d="M0,60.466,3.057,39.093,17.36,0l14.3,39.093,3.057,21.374L17.36,80.126Z" fill="#fff"/>
      <path id="Union_2-2" data-name="Union 2" d="M1.736,30.237,0,23.433,10.415,0,20.833,23.433l-1.739,6.8-8.679,9.824Z" transform="translate(6.943 40.063)" fill="#39beec"/>
    </g>
  </g>
</svg>
