<svg xmlns="http://www.w3.org/2000/svg" width="149.827" height="200" viewBox="0 0 149.827 200">
  <g id="Group_1156" data-name="Group 1156" transform="translate(-59.087 -2463.498)">
    <g id="Group_1147" data-name="Group 1147" transform="translate(93.806 2463.498)">
      <path id="Union_1" data-name="Union 1" d="M0,100.187,6.113,64.773,34.719,0l28.6,64.773,6.113,35.414L34.719,132.761Z" transform="translate(0 0)" fill="#39beec"/>
      <path id="Union_2" data-name="Union 2" d="M3.473,50.1,0,38.826,20.83,0,41.664,38.826,38.186,50.1,20.83,66.376Z" transform="translate(13.885 66.381)" fill="#fff"/>
    </g>
    <g id="Group_1148" data-name="Group 1148" transform="translate(59.087 2562.641)">
      <path id="Union_1-2" data-name="Union 1" d="M0,50.094,3.057,32.387,17.36,0l14.3,32.387,3.057,17.707L17.36,66.382Z" fill="#39beec"/>
      <path id="Union_2-2" data-name="Union 2" d="M1.736,25.05,0,19.413,10.415,0,20.833,19.413,19.094,25.05l-8.679,8.138Z" transform="translate(6.943 33.191)" fill="#fff"/>
    </g>
    <g id="Group_1150" data-name="Group 1150" transform="translate(156.089 2562.495)">
      <path id="Union_1-3" data-name="Union 1" d="M0,76.221,4.651,49.278,26.415,0,48.174,49.278l4.651,26.943L26.415,101Z" fill="#fff"/>
      <path id="Union_2-3" data-name="Union 2" d="M2.642,38.115,0,29.538,15.847,0,31.7,29.538l-2.646,8.577L15.847,50.5Z" transform="translate(10.563 50.502)" fill="#39beec"/>
    </g>
  </g>
</svg>
