<svg xmlns="http://www.w3.org/2000/svg" width="151.214" height="198.306" viewBox="0 0 151.214 198.306">
  <g id="Group_1187" data-name="Group 1187" transform="translate(-1409.518 -2257.514)">
    <path id="Path_354" data-name="Path 354" d="M-13974.328,12993.163s-51.8-10.362-57.4-56.848,21.989-61.8,21.989-61.8-5.749,20.358,2.092,27.639,11.909,5.964,11.909,5.964-12.321-21,0-36.123,35.284-22.682,36.124-38.363-7.841-30.523-7.841-30.523,42,13.721,43.684,45.364-1.119,49.284,12.042,49.845,14-10.36,14-10.36,13.575,9.716,15.815,30.718-.149,49.2-26.324,65.528S-13974.328,12993.163-13974.328,12993.163Z" transform="translate(15442 -10539)" fill="#39beec"/>
    <path id="Path_355" data-name="Path 355" d="M-13997.7,12856.873s-5.294-17.286,6.864-22.679a30.141,30.141,0,0,0,15.818-16.245s6.177,10.8,1.144,16.931-8.823,4.021-15,9.021S-13997.7,12856.873-13997.7,12856.873Z" transform="translate(15442 -10539)" fill="#39beec"/>
    <path id="Path_356" data-name="Path 356" d="M-13905.052,12878.472s3.074-8.973,0-16.341-6.552-9.5-6.552-9.5,9.761-1,12.661,7.3S-13905.052,12878.472-13905.052,12878.472Z" transform="translate(15442 -10539)" fill="#39beec"/>
    <path id="Path_357" data-name="Path 357" d="M-13921.362,12808.706s-11.255,7.02-14.04-1.276-13.17-8.261-13.17-8.261,8.354-5.547,13.17-2.472,2.727,7.955,7.252,10.011S-13921.362,12808.706-13921.362,12808.706Z" transform="translate(15444 -10538.255)" fill="#39beec"/>
    <path id="Path_361" data-name="Path 361" d="M-14008.89,12880.209s-25.684-3.144-27.956-22,14.863-24.342,21.325-30.8,6.631-22.187,6.631-22.187,15.521,4.612,16.2,17.448,4.354,18.3,9.693,18.524,11.593-3.016,11.593-3.016a49.893,49.893,0,0,1,4.132,15.079c.908,8.521-2.738,16.211-13.355,22.833S-14008.89,12880.209-14008.89,12880.209Z" transform="translate(15486.936 -10425.062)" fill="#1b60a3"/>
  </g>
</svg>
