<svg xmlns="http://www.w3.org/2000/svg" width="95.122" height="149.051" viewBox="0 0 95.122 149.051">
  <g id="Group_1185" data-name="Group 1185" transform="translate(-85.908 -2339.061)">
    <path id="Path_347" data-name="Path 347" d="M-14975.348,13011.828c-13.786-17.664-17.017-45.235-1.077-68.715s35.626-25.8,39.42-36.4,1.938-28.648,1.938-28.648,23.5,17.585,18.536,34.683-11.031,27.576-11.031,27.576,9.927-9.652,18.752-12.41a99.973,99.973,0,0,1,12.409-3.309,16.1,16.1,0,0,0-3.585,17.1c3.861,10.2,12.283,34,5.39,51.924s-21.384,28.6-31.035,31.633S-14961.562,13029.492-14975.348,13011.828Z" transform="translate(15073 -10539)" fill="#39beec"/>
    <path id="Path_348" data-name="Path 348" d="M-14885.487,12919.64s3.687-7.81,2.8-14.673a20.758,20.758,0,0,0-5.773-11.419s13.323-.151,14.3,10.536S-14885.487,12919.64-14885.487,12919.64Z" transform="translate(15050.31 -10542.838)" fill="#39beec"/>
    <path id="Path_360" data-name="Path 360" d="M-14985.5,12933.372c-5.386-5.385-9.262-12.494-8.4-27.357s13.748-26.491,13.748-26.491-1.988,13.919,5.8,19.387,20.6-3.605,26.015,3.313,2.651,16.9-.828,24.026a21.579,21.579,0,0,1-13.286,10.832C-14966.318,12938.3-14980.109,12938.757-14985.5,12933.372Z" transform="translate(15101.49 -10449.753)" fill="#1b60a3"/>
  </g>
</svg>
