<svg xmlns="http://www.w3.org/2000/svg" width="72.957" height="149.051" viewBox="0 0 72.957 149.051">
  <g id="Group_1185" data-name="Group 1185" transform="translate(-88.451 -2339.061)">
    <path id="Path_347" data-name="Path 347" d="M-14977.771,13011.828c-10.941-17.664-6.912-38.291,0-53.866s30.42-35.915,33.432-46.515-1.459-33.387-1.459-33.387,18.652,17.585,14.711,34.683-8.754,27.576-8.754,27.576,7.879-9.652,14.883-12.41a66.41,66.41,0,0,1,9.85-3.309,18.891,18.891,0,0,0-2.846,17.1c3.064,10.2,9.75,34,4.277,51.924s-16.973,28.6-24.633,31.633S-14966.828,13029.492-14977.771,13011.828Z" transform="translate(15073 -10539)" fill="#39beec"/>
    <path id="Path_348" data-name="Path 348" d="M-14885.487,12919.64s3.687-7.81,2.8-14.673a20.758,20.758,0,0,0-5.773-11.419s13.323-.151,14.3,10.536S-14885.487,12919.64-14885.487,12919.64Z" transform="translate(15030.687 -10542.838)" fill="#39beec"/>
    <path id="Path_360" data-name="Path 360" d="M-14985.5,12933.372c-5.386-5.385-9.262-12.494-8.4-27.357s13.748-26.491,13.748-26.491-1.988,13.919,5.8,19.387,20.6-3.605,26.015,3.313,2.651,16.9-.828,24.026a21.579,21.579,0,0,1-13.286,10.832C-14966.318,12938.3-14980.109,12938.757-14985.5,12933.372Z" transform="translate(15092.367 -10449.753)" fill="#1b60a3"/>
  </g>
</svg>
