<svg xmlns="http://www.w3.org/2000/svg" width="258.049" height="204.186" viewBox="0 0 258.049 204.186">
  <g id="Group_2117" data-name="Group 2117" transform="translate(-196.418 -2483.538)">
    <path id="Path_350" data-name="Path 350" d="M-14616.55,12960.769s-35.789-.992-50.657-12.329-22.143-15.773-33.984-41.351c-6.6-27.274-.688-35.477,0-50.789.624-13.908-14.339-20.158-13.893-23.443.541-3.992,23.915-5.507,30.2,8.061,4.729,10.206,9.056,22.623,11.829,21.528-.247-1.091,3.043,14.567,2.827,12.9-10.693-19.348-3.592-51.994-2.827-54.516,7.571-24.979-6.564-35.467-6.564-35.467s23.445.6,22.242,15.629,19.828,22.965,19.828,22.965-4.279,4.842,9.627-12.145-6.012-15.629,0-26.449c1.491-2.684,9.911-7.385,11.37-10.82a23.257,23.257,0,0,0,0-17.643s19.288.21,18.687,23.654c3.619,6.27,14.372,11.707,13.826,20.438-1.836,29.4.6,9.617,13.826,0a148.536,148.536,0,0,1,28.252-15.629s-30.656,42.079,0,38.594c12.023,17.311,2.792,30.744,4.809,38.484,1.146,4.393,8.656-15.729,43.883-15.892-30.057,20.439-25.651,43.909-30.8,72.9C-14540.546,12963.786-14616.55,12960.769-14616.55,12960.769Z" transform="translate(14934.358 -10273.366)" fill="#39beec"/>
    <path id="Path_351" data-name="Path 351" d="M12.5,28.368S6.048,14.659,7.432,8.07,5.7-6.465,5.7-6.465s-7.918,16-6.96,24.127S12.5,28.368,12.5,28.368Z" transform="matrix(0.899, 0.438, -0.438, 0.899, 415.325, 2524.177)" fill="#39beec"/>
    <path id="Path_2393" data-name="Path 2393" d="M.41,28.871S5.351,13.8,6.335,9.189,1.14-1.249,1.14-1.249-.567,5.665.115,11.348.41,28.871.41,28.871Z" transform="translate(216.432 2584.28) rotate(150)" fill="#39beec"/>
    <path id="Path_2395" data-name="Path 2395" d="M.41,28.871S5.351,13.8,6.335,9.189,1.14-1.249,1.14-1.249-.567,5.665.115,11.348.41,28.871.41,28.871Z" transform="matrix(-0.996, -0.087, 0.087, -0.996, 360.739, 2516.528)" fill="#39beec"/>
    <path id="Path_2392" data-name="Path 2392" d="M17.8,34.166s3.05-9.986-2.071-14.679S8.043,15.094,6.3,9.148,6.3,0,6.3,0-1.96,8.691.436,14.089s6.756,7.777,11.216,11.894A26.156,26.156,0,0,1,17.8,34.166Z" transform="translate(295.127 2483.538) rotate(42)" fill="#39beec"/>
    <path id="Path_2394" data-name="Path 2394" d="M17.8,34.166s3.05-9.986-2.071-14.679S8.043,15.094,6.3,9.148,6.3,0,6.3,0-1.96,8.691.436,14.089s6.756,7.777,11.216,11.894A26.156,26.156,0,0,1,17.8,34.166Z" transform="matrix(0.454, 0.891, -0.891, 0.454, 445.977, 2594.075)" fill="#39beec"/>
    <path id="Path_359" data-name="Path 359" d="M-14666.562,12842.688s-21.212-.325-36.593-12.915c-7.429-6.081-1.672-11.248-5.189-25.437-25.848-20.437-16.23-37.975-16.23-37.975s20.608,20.315,25.248,21.144,6.936-18.77,0-34.954c.509.795,14.407-14,15.027-13.137,9.206,12.883-4.013,12.345,4.592,26.947,4.926,8.756,27.268,11.438,13.146-13.811,11.116-13.225,7.511-25.159,7.511-25.159s18.988,12.8,16.832,25.159,11.42,30.145,12.586,28.773,35.5-24.373,25.283-11.252,10.221,43.281-13.723,59.7S-14666.562,12842.688-14666.562,12842.688Z" transform="translate(14990.739 -10155.278)" fill="#1b60a3"/>
  </g>
</svg>
