<svg xmlns="http://www.w3.org/2000/svg" width="106.957" height="165.87" viewBox="0 0 106.957 165.87">
  <g id="Group_1186" data-name="Group 1186" transform="translate(-273.568 -2538.818)">
    <path id="Path_350" data-name="Path 350" d="M-14633.855,12941.211s-23.79.925-38.351-12.517-17.755-25.672-16.438-43.779,14.566-33.177,14.566-33.177-4.486,12.367-.564,21.342a48.74,48.74,0,0,0,9.479,14.338s-6.537-18.124,0-35.68,21.131-28.318,28.906-38,9.584-18.212,5.716-28.71-3.131-9.652-3.131-9.652,27.2,22.266,25.768,48.361-13.407,43.812-1.2,46.685,11.014-8.38,11.014-8.38,22.025,16.042,14.6,47.883S-14633.855,12941.211-14633.855,12941.211Z" transform="translate(14962.482 -10236.536)" fill="#39beec"/>
    <path id="Path_351" data-name="Path 351" d="M-14589.553,12848.524s4.976-11.948,3.591-21.068a117.008,117.008,0,0,0-4.549-18.2s14.365,9.1,13.407,20.351S-14589.553,12848.524-14589.553,12848.524Z" transform="translate(14948.197 -10241.455)" fill="#39beec"/>
    <path id="Path_352" data-name="Path 352" d="M-14657.639,12831.291s-3.051-13.912,2.071-20.45,7.688-6.12,9.433-14.4,0-12.746,0-12.746,8.26,12.109,5.863,19.629-6.756,10.834-11.217,16.569A38.813,38.813,0,0,0-14657.639,12831.291Z" transform="translate(14958.055 -10237.695)" fill="#39beec"/>
    <path id="Path_359" data-name="Path 359" d="M-14666.562,12842.688s-13.717.036-21.557-4.539-11.39-20.194-11.39-20.194,8.285,5.3,12.925,6.131,10.071-3.938,6.532-16.4,12.844-11.373,12.55-18.335a89.006,89.006,0,0,0-.98-10.785s17.647,7.353,15.491,19.707.054,18.513,5.01,19.68,16.4-4.967,16.4-4.967a33.085,33.085,0,0,1-6.959,19.884C-14645.993,12842.635-14666.562,12842.688-14666.562,12842.688Z" transform="translate(14994.249 -10138.006)" fill="#1b60a3"/>
  </g>
</svg>
