<?xml version="1.0" encoding="utf-8"?>
<!-- Generator: Adobe Illustrator 24.3.0, SVG Export Plug-In . SVG Version: 6.00 Build 0)  -->
<svg version="1.1" id="Layer_1" xmlns="http://www.w3.org/2000/svg" xmlns:xlink="http://www.w3.org/1999/xlink" x="0px" y="0px"
	 viewBox="0 0 500 500" style="enable-background:new 0 0 500 500;" xml:space="preserve">
<style type="text/css">
	.st0{fill:#39BEEC;}
	.st1{fill:#1B60A3;}
	.st2{fill:#FFFFFF;}
</style>
<g id="Layer_1_1_">
	<circle class="st0" cx="121.1" cy="373.3" r="109.9"/>
	<circle class="st1" cx="279.9" cy="274.4" r="208.8"/>
</g>
<g id="Layer_3">
</g>
<g id="Layer_4_1_">
</g>
<g>
	<g>
	</g>
	<g id="Layer_2_1_">
		<g>
			<g>
				<path class="st2" d="M188,213.5l30.9-26.4c68.8-58.9,85.5-123.6,89.5-148c0.7-4-1.4-8.1-5.4-9.9c-1.1-0.5-2.3-0.7-3.5-0.7
					c-24.9-0.1-91.9,5.7-160.9,64.7l-30.9,26.4l-8.7-2.4c-16.8-4.6-34.8-0.6-48.1,10.7L14,159.3c-2.2,1.9-3.2,4.8-2.6,7.6
					c0.6,2.8,2.7,5.1,5.5,5.8l28.2,8c7.9,2.2,15,6.8,20.3,13L77,207.3l-17.8,15.3c-3.3,2.8-3.7,7.7-0.9,11l9.3,10.9
					c2.8,3.3,7.7,3.7,11,0.9l17.9-15.3l11.6,13.6c5.3,6.2,8.7,13.9,9.7,22.1l3.5,29c0.3,2.9,2.2,5.3,4.9,6.3c2.7,1,5.7,0.5,7.9-1.4
					l36.8-31.5c13.2-11.3,20-28.5,18-45.8L188,213.5z M198.6,127.7c-13.2-11.9-11.6-32.9,3.3-42.6c10.1-6.7,23.8-5.6,32.7,2.5
					c13.2,11.9,11.6,32.8-3.2,42.6C221.3,136.8,207.6,135.8,198.6,127.7z"/>
			</g>
		</g>
	</g>
</g>
</svg>
