<svg xmlns="http://www.w3.org/2000/svg" width="190.537" height="204.229" viewBox="0 0 190.537 204.229">
  <g id="Group_2118" data-name="Group 2118" transform="translate(-22921.736 -2637.536)">
    <path id="Path_354" data-name="Path 354" d="M-13932.115,13008.087s66.2-19.306,56.027-77.568,0-61.962,0-61.962-19.287,9.72-27.744,17.571a115.668,115.668,0,0,0-12.947,13.872s13.289-20.684,0-36.992-14.431-9.443-15.336-26.357,5.711-27.494,5.711-27.494-36.957,1.8-38.77,35.926-3.559,30.234-10.793,32.321-35.605-35.667-35.605-35.667,11.061,48.127,3.236,60.576c-1,9.424-10.672-2.385-18.5-13.41-16.679,41.188-14.8,85.545,21.478,108.11a19.09,19.09,0,0,0,1.963,1.409C-13975.162,13016.028-13932.115,13008.087-13932.115,13008.087Z" transform="translate(36970.938 -10168.107)" fill="#39beec"/>
    <path id="Path_355" data-name="Path 355" d="M-13997.8,12853.653s-4.855-15.856,6.3-20.8a27.647,27.647,0,0,0,14.51-14.9s5.665,9.906,1.049,15.53-8.093,3.688-13.76,8.274S-13997.8,12853.653-13997.8,12853.653Z" transform="translate(37065.813 -10160.365)" fill="#39beec"/>
    <path id="Path_356" data-name="Path 356" d="M-13899.131,12900.879s-5.736-16.74,0-30.488,12.223-17.732,12.223-17.732-18.211-1.859-23.621,13.619S-13899.131,12900.879-13899.131,12900.879Z" transform="translate(36893.094 -10215.053)" fill="#39beec"/>
    <path id="Path_2391" data-name="Path 2391" d="M6.151,0s2.887,8.425,0,15.344S0,24.269,0,24.269s9.165.937,11.888-6.854S6.151,0,6.151,0Z" transform="translate(23095.064 2711.567) rotate(-12)" fill="#39beec"/>
    <path id="Path_357" data-name="Path 357" d="M-13915.092,12811.688s-13.848,8.638-17.275-1.57-16.205-10.165-16.205-10.165,10.281-6.825,16.205-3.042,3.355,9.789,8.924,12.319S-13915.092,12811.688-13915.092,12811.688Z" transform="matrix(0.914, 0.407, -0.407, 0.914, 40876.762, -3336.154)" fill="#39beec"/>
    <path id="Path_361" data-name="Path 361" d="M-13995.3,12880.209s29.947-3.806,32.22-22.665c-1.051-14.1-4.42-28.2,6.105-49.25-.966-1.912-21.952,14.459-25.793,15.932-1.99.768.873-21.231-4.107-27.636-15.551-20.49-9.854-32.484-9.854-32.484s-16.623,23.064-18.6,29.748-5.117,20.932-3.283,33.654a36.419,36.419,0,0,1-9.3-14.228c-2.732-13.775-12.381-19.668-11.766-21.615.8-4.059-2.779,16.931-6.068,37.279s.039,39.27,10.656,45.892S-13995.3,12880.209-13995.3,12880.209Z" transform="translate(37022.375 -10039.115)" fill="#1b60a3"/>
  </g>
</svg>
