<svg xmlns="http://www.w3.org/2000/svg" width="222.507" height="215.393" viewBox="0 0 222.507 215.393">
  <g id="Group_1207" data-name="Group 1207" transform="translate(-848.339 -1764.174)">
    <g id="Group_1200" data-name="Group 1200" transform="translate(-234.295)">
      <g id="Polygon_8" data-name="Polygon 8" transform="translate(1096.294 1852.834) rotate(-30)" fill="none" stroke-linejoin="round">
        <path d="M112.5,0,150,65.283l-37.5,65.283h-75L0,65.283,37.5,0Z" stroke="none"/>
        <path d="M 37.5 -1.52587890625e-05 L 0 65.28260803222656 L 37.5 130.5652313232422 L 112.5 130.5652313232422 L 150 65.28260803222656 L 112.5 -1.52587890625e-05 L 37.5 -1.52587890625e-05 M 37.5 -10.00001525878906 L 112.5 -10.00001525878906 C 116.0805053710938 -10.00001525878906 119.3877639770508 -8.085708618164062 121.1712036132812 -4.980987548828125 L 158.6712036132812 60.3016357421875 C 160.4429473876953 63.38596343994141 160.4429473876953 67.17926025390625 158.6712036132812 70.26358032226562 L 121.1712036132812 135.5462036132812 C 119.3877639770508 138.6509246826172 116.0805053710938 140.5652313232422 112.5 140.5652313232422 L 37.5 140.5652313232422 C 33.91950225830078 140.5652313232422 30.61223602294922 138.6509246826172 28.82879638671875 135.5462036132812 L -8.67120361328125 70.26358032226562 C -10.44294738769531 67.17926025390625 -10.44294738769531 63.38596343994141 -8.67120361328125 60.3016357421875 L 28.82879638671875 -4.980987548828125 C 30.61223602294922 -8.085708618164062 33.91950225830078 -10.00001525878906 37.5 -10.00001525878906 Z" stroke="none" fill="#727071"/>
      </g>
      <g id="Group_1195" data-name="Group 1195" transform="translate(1 2.002)">
        <circle id="Ellipse_231" data-name="Ellipse 231" cx="20" cy="20" r="20" transform="translate(1173 1771.998)" fill="#39beec"/>
        <circle id="Ellipse_232" data-name="Ellipse 232" cx="20" cy="20" r="20" transform="translate(1173 1925.998)" fill="#1b60a3"/>
        <circle id="Ellipse_233" data-name="Ellipse 233" cx="19.5" cy="19.5" r="19.5" transform="translate(1239 1813.998)" fill="#1b60a3"/>
        <circle id="Ellipse_236" data-name="Ellipse 236" cx="19.5" cy="19.5" r="19.5" transform="translate(1240 1884.998)" fill="#39beec"/>
        <ellipse id="Ellipse_234" data-name="Ellipse 234" cx="20" cy="19.5" rx="20" ry="19.5" transform="translate(1107 1813.998)" fill="#1b60a3"/>
        <ellipse id="Ellipse_235" data-name="Ellipse 235" cx="20" cy="19.5" rx="20" ry="19.5" transform="translate(1108 1884.998)" fill="#39beec"/>
      </g>
    </g>
  </g>
</svg>
