<svg xmlns="http://www.w3.org/2000/svg" width="195.464" height="168.687" viewBox="0 0 195.464 168.687">
  <g id="Group_1193" data-name="Group 1193" transform="translate(-845.648 -1789.001)">
    <path id="Union_36" data-name="Union 36" d="M24.528,116.654c-18.335,0-30.172-25.235-21.783-41.538L24.416,33a24.3,24.3,0,0,1,8.473-9.416L23.6,5.857A4,4,0,0,1,27.146,0H65.251a4,4,0,0,1,3.543,5.856L59.508,23.586A24.31,24.31,0,0,1,67.981,33L89.652,75.116c8.389,16.3-3.448,41.538-21.783,41.538Z" transform="translate(948.713 1789.499)" fill="#727071"/>
    <path id="Icon_metro-money" data-name="Icon metro-money" d="M26.389,29.041c-6.5-1.689-8.588-3.421-8.588-6.14,0-3.12,2.877-5.31,7.729-5.31,5.1,0,6.985,2.433,7.156,6.011h6.326c-.186-4.938-3.206-9.432-9.189-10.906V6.427H21.236V12.61C15.683,13.826,11.217,17.4,11.217,22.944c0,6.612,5.482,9.9,13.454,11.822,7.171,1.718,8.588,4.222,8.588,6.913,0,1.961-1.388,5.11-7.729,5.11-5.9,0-8.23-2.648-8.53-6.011H10.688c.358,6.269,5.038,9.776,10.548,10.963v6.212h8.588V51.8c5.568-1.073,10.019-4.294,10.019-10.176C39.842,33.521,32.887,30.744,26.389,29.041Z" transform="translate(970.688 1833.038)" fill="#39beec"/>
    <g id="Group_1192" data-name="Group 1192" transform="translate(1027.187 1874.893) rotate(90)">
      <g id="Group_1166" data-name="Group 1166" transform="translate(0 0)">
        <path id="Subtraction_39" data-name="Subtraction 39" d="M41.191,181.539H0V112.892H3.452a12.859,12.859,0,0,0,3.177,5.185l5.347,5.346a13,13,0,0,0,18.384,0L72.754,81.03a13,13,0,0,0,0-18.384L67.408,57.3a12.927,12.927,0,0,0-9.056-3.807V10a10.012,10.012,0,0,1,10-10h4.408a10.012,10.012,0,0,1,10,10V96.107h-.851L41.446,149.8l-.255-.193v31.93Z" transform="translate(0.035)" fill="#727071"/>
        <path id="Path_319" data-name="Path 319" d="M11.012,0c6.082,0,11.012,5.25,11.012,11.727V81.3H0V11.727C0,5.25,4.93,0,11.012,0Z" transform="translate(57.49 55.336) rotate(45)" fill="#727071"/>
      </g>
      <rect id="Rectangle_363" data-name="Rectangle 363" width="12.204" height="37.205" transform="translate(40.729 101.691) rotate(45)" fill="#727071"/>
    </g>
    <g id="Group_1194" data-name="Group 1194" transform="translate(0.001)">
      <path id="Union_37" data-name="Union 37" d="M15464-10462.807V-10509h-14.5a3,3,0,0,1-2.069-5.17l24-22.86a3.008,3.008,0,0,1,4.14,0l24,22.86a3,3,0,0,1-2.069,5.17h-14.826v46.194Z" transform="translate(-14551.797 12326.857)" fill="#1b60a3"/>
      <path id="Union_38" data-name="Union 38" d="M15456.546-10494.807v-26.5h-5.127a3,3,0,0,1-2.066-5.174l10.581-10.067a3,3,0,0,1,4.137,0l10.58,10.067a3,3,0,0,1-2.07,5.174h-5.313v26.5Z" transform="translate(-14580.891 12359.373)" fill="#1b60a3"/>
    </g>
  </g>
</svg>
