<svg xmlns="http://www.w3.org/2000/svg" width="230.05" height="190.004" viewBox="0 0 230.05 190.004">
  <g id="Group_1179" data-name="Group 1179" transform="translate(-1263.975 -1028)">
    <g id="Group_1178" data-name="Group 1178" transform="translate(-166.654 -246)">
      <path id="Subtraction_41" data-name="Subtraction 41" d="M15746.5-10084a82.969,82.969,0,0,1-28.018-4.836,82.869,82.869,0,0,1-23.951-13.389,83.444,83.444,0,0,1-18.208-20.263,82.6,82.6,0,0,1-10.787-25.461c7.7-2.5,17.869-7.733,22.545-18.427,2.095-4.8,2.853-10.753,2.253-17.683a88.158,88.158,0,0,0,11.616-9.8c13.582-13.5,25.477-35.694,29.6-55.216a84,84,0,0,1,14.951-1.34,82.686,82.686,0,0,1,32.389,6.539,83.245,83.245,0,0,1,14.136,7.671,83.892,83.892,0,0,1,12.314,10.16,83.892,83.892,0,0,1,10.16,12.314,83.245,83.245,0,0,1,7.671,14.136,82.686,82.686,0,0,1,6.539,32.389,82.68,82.68,0,0,1-6.539,32.387,83.245,83.245,0,0,1-7.671,14.136,83.936,83.936,0,0,1-10.16,12.314,83.862,83.862,0,0,1-12.314,10.161,83.344,83.344,0,0,1-14.136,7.672A82.686,82.686,0,0,1,15746.5-10084Z" transform="translate(-14169.024 11548)" fill="#1b60a3"/>
    </g>
    <g id="Icon_ionic-ios-rocket" data-name="Icon ionic-ios-rocket" transform="translate(1263.975 1028)">
      <path id="Path_323" data-name="Path 323" d="M125.99,5.043a1.308,1.308,0,0,0-.978-1.007C108.9.1,71.659,14.138,51.485,34.312A87.2,87.2,0,0,0,41.679,45.9c-6.221-.563-12.442-.089-17.745,2.222C8.974,54.694,4.619,71.876,3.4,79.252a2.654,2.654,0,0,0,2.9,3.081L30.333,79.7a53.409,53.409,0,0,0,.326,5.421,5.377,5.377,0,0,0,1.57,3.288l9.3,9.3a5.377,5.377,0,0,0,3.288,1.57,53.308,53.308,0,0,0,5.392.326l-2.637,24a2.654,2.654,0,0,0,3.081,2.9c7.376-1.185,24.588-5.54,31.135-20.5,2.311-5.3,2.785-11.494,2.251-17.686a87.342,87.342,0,0,0,11.613-9.806C115.917,58.367,129.87,21.959,125.99,5.043ZM77.643,52.413a12.652,12.652,0,1,1,17.893,0A12.641,12.641,0,0,1,77.643,52.413Z" transform="translate(-3.366 -3.372)" fill="#727071"/>
      <path id="Path_324" data-name="Path 324" d="M33.1,37.718h0c-1.244,1.244-3.466,1.955-5.866,2.37A7.974,7.974,0,0,1,18.051,30.9c.415-2.4,1.1-4.621,2.34-5.836l.03-.03a.99.99,0,0,0-.829-1.689,13.618,13.618,0,0,0-7.969,3.881C6.29,32.563,5.787,52.353,5.787,52.353s19.819-.5,25.151-5.836a13.528,13.528,0,0,0,3.881-7.969A1.014,1.014,0,0,0,33.1,37.718Z" transform="translate(4.413 60.795)" fill="#727071"/>
    </g>
    <g id="Icon_ionic-md-time" data-name="Icon ionic-md-time" transform="translate(1359.681 1082.536)">
      <path id="Path_325" data-name="Path 325" d="M55.584,3.375a52.259,52.259,0,1,0,52.309,52.259A52.24,52.24,0,0,0,55.584,3.375Zm.05,94.066A41.807,41.807,0,1,1,97.441,55.634,41.807,41.807,0,0,1,55.634,97.441Z" transform="translate(-3.375 -3.375)" fill="#39beec"/>
      <path id="Path_326" data-name="Path 326" d="M24.376,10.688H16.538V42.043L43.973,58.5l3.919-6.432L24.376,38.123Z" transform="translate(30.496 15.442)" fill="#39beec"/>
    </g>
  </g>
</svg>
