<svg xmlns="http://www.w3.org/2000/svg" width="183.805" height="195.002" viewBox="0 0 183.805 195.002">
  <g id="Group_1164" data-name="Group 1164" transform="translate(-823.304 -1244.387)">
    <circle id="Ellipse_214" data-name="Ellipse 214" cx="22.5" cy="22.5" r="22.5" transform="translate(893 1244.387)" fill="#727071"/>
    <circle id="Ellipse_215" data-name="Ellipse 215" cx="22.5" cy="22.5" r="22.5" transform="translate(947 1244.387)" fill="#39beec"/>
    <ellipse id="Ellipse_216" data-name="Ellipse 216" cx="23" cy="22.5" rx="23" ry="22.5" transform="translate(838 1244.387)" fill="#1b60a3"/>
    <path id="Subtraction_40" data-name="Subtraction 40" d="M15404.388-10401.615v-68.443H15401a10,10,0,0,1-10-10v-55.554a10,10,0,0,1,10-10h63a10,10,0,0,1,10,10v55.554a10,10,0,0,1-10,10h-4.279v68.443Z" transform="translate(-14517 11841)" fill="#727071"/>
    <path id="Subtraction_37" data-name="Subtraction 37" d="M41.3,143.878H0V85.3a20.133,20.133,0,0,0,14.21-19.148V10a10.011,10.011,0,0,0-10-10h41.3a10.011,10.011,0,0,1,10,10v55.49a10.011,10.011,0,0,1-10,10H41.3v68.386Z" transform="translate(951.602 1295.511)" fill="#39beec"/>
    <path id="Subtraction_38" data-name="Subtraction 38" d="M45.508,143.876H4.215a10.012,10.012,0,0,0,9.995-10V77.729A20.132,20.132,0,0,0,0,58.579V0H41.3V68.386h4.21a10.011,10.011,0,0,1,10,10v55.49A10.011,10.011,0,0,1,45.508,143.876Z" transform="translate(878.811 1439.388) rotate(180)" fill="#1b60a3"/>
  </g>
</svg>
