<svg xmlns="http://www.w3.org/2000/svg" width="194.707" height="195.001" viewBox="0 0 194.707 195.001">
  <g id="Group_1169" data-name="Group 1169" transform="translate(-1011.287 -1761.128)">
    <g id="Group_1167" data-name="Group 1167" transform="translate(1135.018 1800.507)">
      <g id="Group_1166" data-name="Group 1166" transform="translate(0 0)">
        <path id="Subtraction_39" data-name="Subtraction 39" d="M35.312,155.622H0V96.773H3.777A13.007,13.007,0,0,0,7.1,102.433l1.958,1.958a13,13,0,0,0,18.385,0L61.057,70.775a13,13,0,0,0,0-18.385L59.1,50.431a12.926,12.926,0,0,0-9.075-3.807V10a10.011,10.011,0,0,1,10-10h.923a10.011,10.011,0,0,1,10,10V80.388a3.338,3.338,0,0,1-.507,1.679,1.081,1.081,0,0,1-.094.149L35.312,128.708v26.913Z" transform="translate(0.029)" fill="#727071"/>
        <path id="Path_319" data-name="Path 319" d="M9.44,0c5.214,0,9.44,4.5,9.44,10.053V69.7H0V10.053C0,4.5,4.227,0,9.44,0Z" transform="translate(49.283 47.436) rotate(45)" fill="#727071"/>
      </g>
      <rect id="Rectangle_363" data-name="Rectangle 363" width="10.462" height="31.894" transform="translate(34.915 87.174) rotate(45)" fill="#727071"/>
    </g>
    <g id="Group_1198" data-name="Group 1198" transform="translate(1011.287 1800.507)">
      <g id="Group_1166-2" data-name="Group 1166" transform="translate(0 0)">
        <path id="Subtraction_39-2" data-name="Subtraction 39" d="M60.944,155.622h-.923a10.011,10.011,0,0,1-10-10V109a12.925,12.925,0,0,0,9.075-3.807l1.958-1.959a13,13,0,0,0,0-18.384L27.438,51.231a13,13,0,0,0-18.385,0L7.094,53.189a13.008,13.008,0,0,0-3.321,5.659H0V0H35.309V26.915L70.344,73.407a1.021,1.021,0,0,1,.091.145,3.33,3.33,0,0,1,.509,1.682v70.388A10.011,10.011,0,0,1,60.944,155.622Z" transform="translate(70.944 155.622) rotate(180)" fill="#727071"/>
        <path id="Path_319-2" data-name="Path 319" d="M9.44,69.7c5.214,0,9.44-4.5,9.44-10.053V0H0V59.645C0,65.2,4.227,69.7,9.44,69.7Z" transform="translate(70.976 96.72) rotate(135)" fill="#727071"/>
      </g>
      <rect id="Rectangle_363-2" data-name="Rectangle 363" width="10.462" height="31.894" transform="translate(58.614 109.727) rotate(135)" fill="#727071"/>
    </g>
    <g id="Group_1199" data-name="Group 1199" transform="translate(-0.355 0.001)">
      <path id="Subtraction_43" data-name="Subtraction 43" d="M16.754,78.758A39.045,39.045,0,0,1,0,75.025,44.355,44.355,0,0,0,18.889,38.747,43.926,43.926,0,0,0,1.074,3.246,39.348,39.348,0,0,1,44.6,11.533,39.368,39.368,0,0,1,16.754,78.758Z" transform="translate(1116.871 1761.127)" fill="#1b60a3"/>
      <circle id="Ellipse_224" data-name="Ellipse 224" cx="39.378" cy="39.378" r="39.378" transform="translate(1046.086 1761.127)" fill="#39beec"/>
    </g>
    <circle id="Ellipse_238" data-name="Ellipse 238" cx="14.377" cy="14.377" r="14.377" transform="translate(1094.73 1863.94)" fill="#727071"/>
  </g>
</svg>
